<svg xmlns="http://www.w3.org/2000/svg" viewBox="0 0 62.84 8.89"><defs><style>.cls-1{fill:#ef5898;}.cls-2{fill:#231f20;}</style></defs><title>Asset 1</title><g id="Layer_2" data-name="Layer 2"><g id="highlights"><rect class="cls-1" y="4" width="62.84" height="1.1"/><path class="cls-2" d="M6.2,7.58a2.27,2.27,0,0,0,.48-.27,1.78,1.78,0,0,0,.4-.42,1.46,1.46,0,0,0,.22-.53.93.93,0,0,0,0-.44.78.78,0,0,0-.17-.34,1.43,1.43,0,0,0-.32-.27,2.81,2.81,0,0,0-.38-.2L6,5a2.92,2.92,0,0,1-.87-.41,1.88,1.88,0,0,1-.61-.67,1.57,1.57,0,0,1-.21-.62,2,2,0,0,1,0-.73,3,3,0,0,1,.37-1,3.39,3.39,0,0,1,.66-.8A2.89,2.89,0,0,1,6.23.21,2.44,2.44,0,0,1,7.17,0,1.91,1.91,0,0,1,8,.18a1.63,1.63,0,0,1,.62.45,2,2,0,0,1,.48,1.22l-1.13.24a1.08,1.08,0,0,0-.2-.5A.91.91,0,0,0,7,1.21a1.23,1.23,0,0,0-.49.1A1.83,1.83,0,0,0,6,1.59,1.89,1.89,0,0,0,5.65,2a1.61,1.61,0,0,0-.19.5,1.12,1.12,0,0,0,0,.36.77.77,0,0,0,.08.29,1.18,1.18,0,0,0,.17.24,1.81,1.81,0,0,0,.23.18,1.52,1.52,0,0,0,.26.14l.27.12.29.1L7,4.05a4.11,4.11,0,0,1,.51.27,2.22,2.22,0,0,1,.44.37,1.78,1.78,0,0,1,.33.46,1.46,1.46,0,0,1,.17.57,1.85,1.85,0,0,1,0,.66,2.79,2.79,0,0,1-.4,1A3.31,3.31,0,0,1,6.41,8.7a2.78,2.78,0,0,1-1,.19,2.08,2.08,0,0,1-1-.22A2,2,0,0,1,3.76,8a2.12,2.12,0,0,1-.33-1l1.13-.25a1,1,0,0,0,.4.64,1.1,1.1,0,0,0,.71.25A1.76,1.76,0,0,0,6.2,7.58Z"/><path class="cls-2" d="M11.46.08,10.8,3.5l-.07.36h3.61l.07-.36L15.07.08h1.08L14.46,8.79H13.38L14,5.38,14.11,5H10.5l-.07.36L9.76,8.79H8.69L10.38.08Z"/><path class="cls-2" d="M21.83.06,21.6,1.22H18.07L18,1.59l-.37,1.9-.07.37h2.65L20,5H17.33l-.07.36L16.9,7.29l-.07.37h3.52l-.23,1.16H15.51L17.22.06Z"/><path class="cls-2" d="M29.3.09a3.48,3.48,0,0,1,1.34.33,3,3,0,0,1,1.15,1h0a3,3,0,0,1,.53,1.4,5.31,5.31,0,0,1-.06,1.68,6.06,6.06,0,0,1-.59,1.67,4.81,4.81,0,0,1-1.08,1.4h0a5.14,5.14,0,0,1-1.53,1,4.61,4.61,0,0,1-1.69.32h-2l1.7-8.7H29.3ZM27.61,7.63a3.53,3.53,0,0,0,1.23-.21,3.31,3.31,0,0,0,1.08-.66,3.77,3.77,0,0,0,.82-1,4.61,4.61,0,0,0,.45-1.28,4.08,4.08,0,0,0,0-1.29,2.35,2.35,0,0,0-.42-1A2.18,2.18,0,0,0,30,1.45a3,3,0,0,0-1.15-.21h-.92l-.07.36-1.1,5.67-.07.36h.93Z"/><path class="cls-2" d="M38.22,8.79H37.06l-.32-1.43H33.3l-.88,1.43H31.26L36.45,0Zm-3-2.37h1.33c-.12-.54-.23-1.13-.33-1.76s-.2-1.22-.31-1.77c-.32.55-.66,1.14-1,1.77s-.68,1.22-1,1.76Z"/><path class="cls-2" d="M42.88.09a3.48,3.48,0,0,1,1.34.33,2.93,2.93,0,0,1,1.15,1h0a2.89,2.89,0,0,1,.53,1.4,5,5,0,0,1-.06,1.68,6.06,6.06,0,0,1-.59,1.67,4.81,4.81,0,0,1-1.08,1.4h0a5,5,0,0,1-1.52,1,4.71,4.71,0,0,1-1.7.32H39l1.7-8.7h2.22ZM41.2,7.63a3.61,3.61,0,0,0,1.23-.21,3.27,3.27,0,0,0,1.07-.66,3.77,3.77,0,0,0,.82-1,4.31,4.31,0,0,0,.45-1.28,3.8,3.8,0,0,0,0-1.29,2.35,2.35,0,0,0-.42-1,2.23,2.23,0,0,0-.82-.67,3,3,0,0,0-1.16-.21h-.91l-.07.36L40.33,7.27l-.07.36h.94Z"/><path class="cls-2" d="M49.67.09A3.43,3.43,0,0,1,51,.42a3,3,0,0,1,1.16,1h0a3,3,0,0,1,.53,1.4,5.31,5.31,0,0,1-.06,1.68,6.06,6.06,0,0,1-.59,1.67A5,5,0,0,1,51,7.52h0a5,5,0,0,1-1.52,1,4.65,4.65,0,0,1-1.69.32h-2L47.44.09h2.23ZM48,7.63a3.53,3.53,0,0,0,1.23-.21,3.42,3.42,0,0,0,1.08-.66,3.74,3.74,0,0,0,.81-1,4.33,4.33,0,0,0,.46-1.28,3.78,3.78,0,0,0,0-1.29,2.46,2.46,0,0,0-.41-1,2.26,2.26,0,0,0-.83-.67,3,3,0,0,0-1.15-.21h-.92l-.07.36-1.1,5.67-.07.36H48Z"/><path class="cls-2" d="M54.23.08l.91,3.08.18.62.42-.62L57.84.08h1.23l-3.4,4.86-.07.18-.72,3.67H53.81l.72-3.67,0-.18L53,.08Z"/></g></g></svg>