<svg xmlns="http://www.w3.org/2000/svg" viewBox="0 0 129 18.26"><defs><style>.cls-1{fill:#ef5898;}.cls-2{fill:#fff;}</style></defs><title>Asset 2</title><g id="Layer_2" data-name="Layer 2"><g id="highlights"><rect class="cls-1" y="8.21" width="129" height="2.25"/><path class="cls-2" d="M12.72,15.55a4.24,4.24,0,0,0,1-.55,3.68,3.68,0,0,0,.82-.85A2.79,2.79,0,0,0,15,13.06a2,2,0,0,0,0-.9,1.65,1.65,0,0,0-.36-.71A3.3,3.3,0,0,0,14,10.9a5.35,5.35,0,0,0-.78-.41,6.79,6.79,0,0,0-.84-.3,6.68,6.68,0,0,1-1.8-.86A4.16,4.16,0,0,1,9.29,8a3.85,3.85,0,0,1-.43-1.29,4.54,4.54,0,0,1,.05-1.51,5.9,5.9,0,0,1,.76-2A7,7,0,0,1,11,1.54,6.47,6.47,0,0,1,12.78.42a5.19,5.19,0,0,1,2-.4,3.91,3.91,0,0,1,1.62.34,3.61,3.61,0,0,1,1.28.93,4.06,4.06,0,0,1,1,2.5l-2.31.5a2.39,2.39,0,0,0-.41-1,1.9,1.9,0,0,0-1.63-.79,2.63,2.63,0,0,0-1,.2,3.89,3.89,0,0,0-.94.59,3.65,3.65,0,0,0-.72.89,3.47,3.47,0,0,0-.39,1,2.69,2.69,0,0,0,0,.74,1.51,1.51,0,0,0,.17.59,1.55,1.55,0,0,0,.35.48,2.52,2.52,0,0,0,.45.38c.16.09.33.2.54.3l.57.24.58.2.49.19a7.58,7.58,0,0,1,1.06.55,4.84,4.84,0,0,1,.9.75,4.42,4.42,0,0,1,.69,1,3.55,3.55,0,0,1,.35,1.17,4.12,4.12,0,0,1-.05,1.35,5.72,5.72,0,0,1-.82,2A7,7,0,0,1,15,16.77a6.69,6.69,0,0,1-1.84,1.08,5.32,5.32,0,0,1-2,.41,4.28,4.28,0,0,1-2-.47,4,4,0,0,1-1.49-1.33,4.26,4.26,0,0,1-.68-2L9.36,14a2.2,2.2,0,0,0,.82,1.32,2.33,2.33,0,0,0,1.47.51A3.56,3.56,0,0,0,12.72,15.55Z"/><path class="cls-2" d="M23.52.17l-1.36,7L22,7.93h7.42l.15-.75L31,.17h2.21L29.68,18.06H27.47l1.36-7L29,10.3H21.56l-.14.74-1.37,7H17.83L21.31.17Z"/><path class="cls-2" d="M44.81.13l-.46,2.38H37.1L37,3.26,36.2,7.17l-.14.76h5.42L41,10.31H35.59l-.15.74L34.69,15l-.15.76h7.24l-.47,2.38H31.85l3.5-18Z"/><path class="cls-2" d="M60.16.18A7.31,7.31,0,0,1,62.9.85,6.38,6.38,0,0,1,65.27,2.8h0a6.09,6.09,0,0,1,1.1,2.87,11.17,11.17,0,0,1-.12,3.45A12.52,12.52,0,0,1,65,12.57a10,10,0,0,1-2.21,2.86l0,0a10.2,10.2,0,0,1-3.12,1.93,9.26,9.26,0,0,1-3.48.68h-4.1L55.59.18h4.57ZM56.69,15.67a7.13,7.13,0,0,0,2.53-.44,7,7,0,0,0,2.21-1.35,7.88,7.88,0,0,0,1.67-2.13A8.79,8.79,0,0,0,64,9.11a7.71,7.71,0,0,0,.1-2.64,4.79,4.79,0,0,0-.86-2.12A4.63,4.63,0,0,0,61.58,3a5.89,5.89,0,0,0-2.37-.44H57.33l-.14.74L54.92,14.93l-.14.74h1.91Z"/><path class="cls-2" d="M78.46,18.06H76.08l-.66-2.95H68.36l-1.8,2.95H64.17L74.83,0Zm-6.2-4.88H75c-.24-1.11-.46-2.33-.66-3.62s-.41-2.5-.64-3.63C73,7.06,72.32,8.28,71.61,9.56s-1.4,2.51-2.06,3.62Z"/><path class="cls-2" d="M88,.18a7.27,7.27,0,0,1,2.74.67A6.38,6.38,0,0,1,93.15,2.8h0a6.09,6.09,0,0,1,1.1,2.87,10.87,10.87,0,0,1-.12,3.45,12.52,12.52,0,0,1-1.22,3.44,9.78,9.78,0,0,1-2.21,2.86v0a10.25,10.25,0,0,1-3.13,1.93,9.22,9.22,0,0,1-3.48.68H80L83.47.18H88ZM84.58,15.67a6.94,6.94,0,0,0,4.74-1.79A8.08,8.08,0,0,0,91,11.75a9.06,9.06,0,0,0,.92-2.64A7.46,7.46,0,0,0,92,6.47a4.89,4.89,0,0,0-.85-2.12A4.67,4.67,0,0,0,89.46,3a5.89,5.89,0,0,0-2.37-.44H85.21l-.14.74L82.81,14.93l-.15.74h1.92Z"/><path class="cls-2" d="M102,.18a7.27,7.27,0,0,1,2.74.67,6.38,6.38,0,0,1,2.37,1.95h0a6.09,6.09,0,0,1,1.1,2.87,10.87,10.87,0,0,1-.12,3.45,12.52,12.52,0,0,1-1.22,3.44,9.78,9.78,0,0,1-2.21,2.86v0a10.25,10.25,0,0,1-3.13,1.93,9.22,9.22,0,0,1-3.48.68h-4.1L97.4.18H102ZM98.51,15.67a7,7,0,0,0,2.52-.44,6.86,6.86,0,0,0,2.21-1.35,7.91,7.91,0,0,0,1.68-2.13,9.06,9.06,0,0,0,.92-2.64,7.46,7.46,0,0,0,.1-2.64,4.89,4.89,0,0,0-.85-2.12A4.75,4.75,0,0,0,103.39,3,5.89,5.89,0,0,0,101,2.54H99.14L99,3.28,96.74,14.93l-.15.74h1.92Z"/><path class="cls-2" d="M111.34.17l1.85,6.33.38,1.26.86-1.26L118.75.17h2.51l-7,10-.15.36-1.46,7.56h-2.21l1.47-7.56,0-.36-3.08-10Z"/></g></g></svg>